PathFileType	4	(X/Y/Z)	C:\Data\4407\4407cd01.trc
DataRate	CameraRate	NumFrames	NumMarkers	Units	OrigDataRate	OrigDataStartFrame	OrigNumFrames
200.00	200.00	       4	33	mm	200.00	1	       451
Frame#	Time	Offset			RShoulder			RUpperArm			RElbow			RForearm			RWrist			LShoulder			LUpperArm			LElbow			LForearm			LWrist			LPSIS			RPSIS			RASIS			RThigh			RKnee			RShank			RAnkle			RHeel			RLat5			RToe			LASIS			LThigh			LKnee			LShank			LAnkle			LHeel			LLat5			LToe			RMed.Knee			LMed.Knee			RMed.Ankle			LMed.Ankle			
		X1	Y1	Z1	X2	Y2	Z2	X3	Y3	Z3	X4	Y4	Z4	X5	Y5	Z5	X6	Y6	Z6	X7	Y7	Z7	X8	Y8	Z8	X9	Y9	Z9	X10	Y10	Z10	X11	Y11	Z11	X12	Y12	Z12	X13	Y13	Z13	X14	Y14	Z14	X15	Y15	Z15	X16	Y16	Z16	X17	Y17	Z17	X18	Y18	Z18	X19	Y19	Z19	X20	Y20	Z20	X21	Y21	Z21	X22	Y22	Z22	X23	Y23	Z23	X24	Y24	Z24	X25	Y25	Z25	X26	Y26	Z26	X27	Y27	Z27	X28	Y28	Z28	X29	Y29	Z29	X30	Y30	Z30	X31	Y31	Z31	X32	Y32	Z32	X33	Y33	Z33	

1	0.000	328.48047	-309.71259	1396.10742	416.84164	-209.31573	1539.87793	537.69232	-277.72995	1407.14648	703.07013	-271.24591	1407.65063	845.72931	-259.43436	1327.98206	964.69696	-200.77528	1380.82434	129.48679	-217.91447	1541.69824	-6.76061	-287.41406	1388.91736	-137.91893	-292.11816	1398.19983	-279.15338	-283.66888	1328.48950	-422.24606	-215.43582	1346.91321	251.82867	-315.10645	1031.32483	301.36139	-314.34006	1033.19336	396.67508	-100.25900	1019.66479	370.51163	-103.95744	692.04236	452.41235	-203.70068	520.28625	420.32950	-175.29227	444.10760	462.59866	-247.71904	110.73972	417.96500	-303.51111	75.73353	516.02612	-108.25615	62.18242	410.50839	-92.42137	57.47822	142.92905	-106.77823	998.25336	147.00914	-113.99800	663.99213	98.84566	-206.86708	519.18292	132.06747	-179.33156	444.26224	93.07743	-267.34909	111.02953	145.70171	-319.10013	80.67616	41.49114	-122.05364	57.89732	150.25099	-105.40659	49.21850	342.36136	-198.18430	501.23462	202.04021	-193.85773	480.95694	376.68015	-208.11865	121.38398	178.75212	-222.60101	116.41076	
2	0.005	328.50333	-309.70700	1396.12488	416.94287	-209.23537	1539.85461	537.71796	-277.74823	1407.13831	703.05811	-271.24991	1407.69470	845.79321	-259.37735	1327.90857	964.70770	-200.73077	1380.80286	129.50136	-217.94469	1541.70593	-6.76957	-287.53790	1388.95508	-137.94978	-292.06046	1398.18079	-279.13522	-283.67618	1328.48181	-422.21307	-215.50923	1346.89673	251.84639	-315.06833	1031.31848	301.37531	-314.34045	1033.19348	396.72015	-100.31256	1019.62231	370.57861	-103.95540	692.03345	452.45950	-203.72708	520.32678	420.29016	-175.25220	444.19830	462.53534	-247.51842	110.81986	417.88965	-303.53735	75.82693	516.01660	-108.25181	62.17414	410.49969	-92.43736	57.50234	142.92993	-106.77107	998.28638	147.07147	-113.81677	664.15033	98.84603	-206.84694	519.16467	132.11143	-179.30959	444.24576	93.11124	-267.24930	111.02860	145.65523	-319.11710	80.73222	41.58074	-122.02420	57.85549	150.26912	-105.37233	49.22956	342.31546	-198.18669	501.20752	202.03642	-193.88329	480.88071	376.67923	-208.04373	121.41579	178.80850	-222.67125	116.49118	
3	0.010	328.66974	-309.68048	1396.05835	416.85382	-209.26453	1539.84717	537.77850	-277.70328	1407.06494	703.10791	-271.21609	1407.64880	845.80420	-259.35336	1327.89795	964.70764	-200.70064	1380.78516	129.52419	-217.98566	1541.72778	-6.71798	-287.46927	1388.99927	-137.86784	-292.11322	1398.18066	-279.07523	-283.70010	1328.49194	-422.20038	-215.50844	1347.03650	251.81700	-315.06958	1031.32837	301.37976	-314.34985	1033.20459	396.72314	-100.29547	1019.62872	370.54944	-103.91292	692.06897	452.51501	-203.77321	520.27747	420.33643	-175.20206	444.31979	462.55838	-247.72841	110.76443	417.89276	-303.49167	75.75073	515.99640	-108.19268	62.18033	410.56723	-92.47289	57.45532	142.95103	-106.74264	998.27429	147.18138	-113.69268	664.20581	98.87588	-206.80237	519.19275	132.10619	-179.30821	444.27158	93.08278	-267.28375	111.02200	145.68045	-319.09366	80.68546	41.50571	-121.99200	57.90512	150.26585	-105.40757	49.20144	342.31113	-198.19937	501.17935	202.11835	-193.85181	480.84518	376.69592	-208.11232	121.37330	178.73366	-222.66801	116.41625	
4	0.015	328.63998	-309.76318	1396.06262	416.89682	-209.29039	1539.85327	537.81750	-277.76132	1407.07837	703.09436	-271.22366	1407.68530	845.88159	-259.25797	1327.96960	964.71588	-200.66209	1380.79370	129.59244	-217.99011	1541.74768	-6.68617	-287.47733	1388.97717	-137.80608	-292.13400	1398.28040	-279.05692	-283.77844	1328.49255	-422.19574	-215.59041	1346.98584	251.85013	-315.08472	1031.32739	301.42365	-314.33078	1033.20239	396.73618	-100.28410	1019.60413	370.52435	-103.92818	692.06097	452.50714	-203.76663	520.26581	420.34000	-175.25046	444.36716	462.51846	-247.50328	110.83388	417.83670	-303.58212	75.86812	516.00397	-108.23794	62.13081	410.52460	-92.43675	57.50484	142.96031	-106.77051	998.27203	147.16225	-113.83708	663.95496	98.88306	-206.83292	519.18195	132.10452	-179.29205	444.29703	93.15816	-267.10458	110.86987	145.71115	-319.05185	80.70512	41.46589	-122.10950	57.88678	150.32025	-105.39993	49.23040	342.34100	-198.27414	501.13403	202.05998	-193.81657	480.88132	376.69061	-208.02054	121.41213	178.78665	-222.68925	116.51060	
